<svg width="196" height="196" viewBox="0 0 196 196" fill="none" xmlns="http://www.w3.org/2000/svg">
<circle cx="98" cy="98" r="98" fill="#D9D9D9"/>
<path d="M79.024 147.28C65.0293 147.28 54.0213 143.141 46 134.864C37.9787 126.587 33.968 114.725 33.968 99.28C33.968 84.0907 37.8507 72.3147 45.616 63.952C53.3813 55.504 64.2187 51.28 78.128 51.28C84.784 51.28 90.5867 51.7493 95.536 52.688C97.584 53.0293 99.248 54.0533 100.528 55.76C101.808 57.4667 102.448 59.3867 102.448 61.52V65.616C102.448 67.408 101.723 68.816 100.272 69.84C98.8213 70.864 97.2427 71.1627 95.536 70.736C90.672 69.456 85.7227 68.816 80.688 68.816C73.008 68.816 66.992 71.4187 62.64 76.624C58.3733 81.8293 56.24 89.3813 56.24 99.28C56.24 109.008 58.544 116.56 63.152 121.936C67.76 127.312 73.904 130 81.584 130C86.704 130 91.696 129.36 96.56 128.08C98.2667 127.653 99.8453 127.952 101.296 128.976C102.832 130 103.6 131.408 103.6 133.2V137.04C103.6 139.173 102.917 141.093 101.552 142.8C100.272 144.507 98.608 145.531 96.56 145.872C91.5253 146.811 85.68 147.28 79.024 147.28ZM121.035 144.976L99.403 86.224C98.7203 84.6027 98.891 83.0667 99.915 81.616C100.939 80.1653 102.347 79.44 104.139 79.44H112.203C114.251 79.44 116.128 80.1227 117.835 81.488C119.542 82.768 120.651 84.432 121.163 86.48L130.891 126.288C130.891 126.373 130.934 126.416 131.019 126.416C131.104 126.416 131.147 126.373 131.147 126.288L142.795 86.352C143.307 84.304 144.416 82.64 146.123 81.36C147.915 80.08 149.92 79.44 152.139 79.44H159.179C160.886 79.44 162.251 80.1653 163.275 81.616C164.299 83.0667 164.512 84.6027 163.915 86.224L133.707 167.376C132.939 169.424 131.659 171.045 129.867 172.24C128.075 173.52 126.112 174.16 123.979 174.16H116.939C115.147 174.16 113.782 173.435 112.843 171.984C111.904 170.619 111.776 169.125 112.459 167.504L121.035 147.024C121.12 146.683 121.163 146.341 121.163 146C121.163 145.659 121.12 145.317 121.035 144.976Z" fill="url(#paint0_angular_199_779)"/>
<defs>
<radialGradient id="paint0_angular_199_779" cx="0" cy="0" r="1" gradientUnits="userSpaceOnUse" gradientTransform="translate(98.5 98) rotate(90) scale(95 68.5)">
<stop offset="0.965394" stop-color="#6D28D9"/>
<stop offset="0.984484" stop-color="#2563EB"/>
</radialGradient>
</defs>
</svg>
