<svg width="196" height="196" viewBox="0 0 196 196" fill="none" xmlns="http://www.w3.org/2000/svg">
<circle cx="98" cy="98" r="98" fill="#D9D9D9"/>
<path d="M42.16 142C41.2213 142 40.4533 141.701 39.856 141.104C39.2587 140.507 38.96 139.739 38.96 138.8V55.6C38.96 54.6613 39.2587 53.8933 39.856 53.296C40.4533 52.6987 41.2213 52.4 42.16 52.4H58.288C59.2267 52.4 59.9947 52.6987 60.592 53.296C61.1893 53.8933 61.488 54.6613 61.488 55.6V84.016L85.168 54.832C85.5093 54.32 86.064 53.808 86.832 53.296C87.6853 52.6987 88.7947 52.4 90.16 52.4H108.592C109.36 52.4 110 52.6987 110.512 53.296C111.024 53.808 111.28 54.4053 111.28 55.088C111.28 55.6853 111.109 56.1973 110.768 56.624L80.176 95.28L113.2 137.776C113.541 138.117 113.712 138.629 113.712 139.312C113.712 139.995 113.413 140.635 112.816 141.232C112.304 141.744 111.707 142 111.024 142H91.952C90.416 142 89.2213 141.659 88.368 140.976C87.6 140.293 87.088 139.781 86.832 139.44L61.488 107.824V138.8C61.488 139.739 61.1893 140.507 60.592 141.104C59.9947 141.701 59.2267 142 58.288 142H42.16ZM138.395 142C132.934 142 128.198 141.147 124.187 139.44C120.262 137.648 117.232 134.917 115.099 131.248C112.966 127.493 111.899 122.672 111.899 116.784V92.208H101.915C100.976 92.208 100.166 91.9093 99.483 91.312C98.8857 90.7147 98.587 89.9467 98.587 89.008V78.64C98.587 77.7013 98.8857 76.9333 99.483 76.336C100.166 75.7387 100.976 75.44 101.915 75.44H111.899V54.32C111.899 53.3813 112.198 52.6133 112.795 52.016C113.478 51.4187 114.246 51.12 115.099 51.12H129.947C130.886 51.12 131.654 51.4187 132.251 52.016C132.848 52.6133 133.147 53.3813 133.147 54.32V75.44H149.147C150.086 75.44 150.854 75.7387 151.451 76.336C152.048 76.9333 152.347 77.7013 152.347 78.64V89.008C152.347 89.9467 152.048 90.7147 151.451 91.312C150.854 91.9093 150.086 92.208 149.147 92.208H133.147V114.992C133.147 117.893 133.702 120.197 134.811 121.904C135.92 123.611 137.798 124.464 140.443 124.464H150.299C151.238 124.464 152.006 124.763 152.603 125.36C153.2 125.957 153.499 126.725 153.499 127.664V138.8C153.499 139.739 153.2 140.507 152.603 141.104C152.006 141.701 151.238 142 150.299 142H138.395Z" fill="url(#paint0_radial_199_779)"/>
<defs>
<radialGradient id="paint0_radial_199_779" cx="0" cy="0" r="1" gradientUnits="userSpaceOnUse" gradientTransform="translate(93.5 98) rotate(90) scale(76 63.5)">
<stop stop-color="#2563EB"/>
<stop offset="0.0001" stop-color="#2563EB"/>
<stop offset="0.822917" stop-color="#6B37FF"/>
</radialGradient>
</defs>
</svg>
