<svg width="256" height="264" viewBox="0 0 256 264" fill="none" xmlns="http://www.w3.org/2000/svg">
<path d="M224.851 55.2983L146 9.7735C134.862 3.34272 121.138 3.34272 110 9.7735L31.1488 55.2983C20.0103 61.7291 13.1488 73.6136 13.1488 86.4752V177.525C13.1488 190.386 20.0103 202.271 31.1487 208.702L110 254.227C121.138 260.657 134.862 260.657 146 254.227L224.851 208.702C235.99 202.271 242.851 190.386 242.851 177.525V86.4752C242.851 73.6136 235.99 61.7291 224.851 55.2983Z" fill="#172554" stroke="#1E3A8A" stroke-width="8"/>
<path d="M109.024 181.28C95.0293 181.28 84.0213 177.141 76 168.864C67.9787 160.587 63.968 148.725 63.968 133.28C63.968 118.091 67.8507 106.315 75.616 97.952C83.3813 89.504 94.2187 85.28 108.128 85.28C114.784 85.28 120.587 85.7493 125.536 86.688C127.584 87.0293 129.248 88.0533 130.528 89.76C131.808 91.4667 132.448 93.3867 132.448 95.52V99.616C132.448 101.408 131.723 102.816 130.272 103.84C128.821 104.864 127.243 105.163 125.536 104.736C120.672 103.456 115.723 102.816 110.688 102.816C103.008 102.816 96.992 105.419 92.64 110.624C88.3733 115.829 86.24 123.381 86.24 133.28C86.24 143.008 88.544 150.56 93.152 155.936C97.76 161.312 103.904 164 111.584 164C116.704 164 121.696 163.36 126.56 162.08C128.267 161.653 129.845 161.952 131.296 162.976C132.832 164 133.6 165.408 133.6 167.2V171.04C133.6 173.173 132.917 175.093 131.552 176.8C130.272 178.507 128.608 179.531 126.56 179.872C121.525 180.811 115.68 181.28 109.024 181.28ZM151.035 178.976L129.403 120.224C128.72 118.603 128.891 117.067 129.915 115.616C130.939 114.165 132.347 113.44 134.139 113.44H142.203C144.251 113.44 146.128 114.123 147.835 115.488C149.542 116.768 150.651 118.432 151.163 120.48L160.891 160.288C160.891 160.373 160.934 160.416 161.019 160.416C161.104 160.416 161.147 160.373 161.147 160.288L172.795 120.352C173.307 118.304 174.416 116.64 176.123 115.36C177.915 114.08 179.92 113.44 182.139 113.44H189.179C190.886 113.44 192.251 114.165 193.275 115.616C194.299 117.067 194.512 118.603 193.915 120.224L163.707 201.376C162.939 203.424 161.659 205.045 159.867 206.24C158.075 207.52 156.112 208.16 153.979 208.16H146.939C145.147 208.16 143.782 207.435 142.843 205.984C141.904 204.619 141.776 203.125 142.459 201.504L151.035 181.024C151.12 180.683 151.163 180.341 151.163 180C151.163 179.659 151.12 179.317 151.035 178.976Z" fill="url(#paint0_angular_191_778)"/>
<defs>
<radialGradient id="paint0_angular_191_778" cx="0" cy="0" r="1" gradientUnits="userSpaceOnUse" gradientTransform="translate(128.5 132) rotate(90) scale(95 68.5)">
<stop offset="0.965394" stop-color="#4F46E5"/>
<stop offset="0.984484" stop-color="#2563EB"/>
</radialGradient>
</defs>
</svg>
