<svg width="256" height="264" viewBox="0 0 256 264" fill="none" xmlns="http://www.w3.org/2000/svg">
<path d="M146 9.7735C134.862 3.34272 121.138 3.34272 110 9.7735L31.1488 55.2983C20.0103 61.7291 13.1488 73.6136 13.1488 86.4752V177.525C13.1488 190.386 20.0103 202.271 31.1487 208.702L110 254.226C121.138 260.657 134.862 260.657 146 254.226L224.851 208.702C235.99 202.271 242.851 190.386 242.851 177.525V86.4752C242.851 73.6136 235.99 61.7291 224.851 55.2983L146 9.7735Z" fill="#050F31" stroke="#00071A" stroke-width="8"/>
<path d="M72.16 176C71.2213 176 70.4533 175.701 69.856 175.104C69.2587 174.507 68.96 173.739 68.96 172.8V89.6C68.96 88.6613 69.2587 87.8933 69.856 87.296C70.4533 86.6987 71.2213 86.4 72.16 86.4H88.288C89.2267 86.4 89.9947 86.6987 90.592 87.296C91.1893 87.8933 91.488 88.6613 91.488 89.6V118.016L115.168 88.832C115.509 88.32 116.064 87.808 116.832 87.296C117.685 86.6987 118.795 86.4 120.16 86.4H138.592C139.36 86.4 140 86.6987 140.512 87.296C141.024 87.808 141.28 88.4053 141.28 89.088C141.28 89.6853 141.109 90.1973 140.768 90.624L110.176 129.28L143.2 171.776C143.541 172.117 143.712 172.629 143.712 173.312C143.712 173.995 143.413 174.635 142.816 175.232C142.304 175.744 141.707 176 141.024 176H121.952C120.416 176 119.221 175.659 118.368 174.976C117.6 174.293 117.088 173.781 116.832 173.44L91.488 141.824V172.8C91.488 173.739 91.1893 174.507 90.592 175.104C89.9947 175.701 89.2267 176 88.288 176H72.16ZM168.395 176C162.934 176 158.198 175.147 154.187 173.44C150.262 171.648 147.232 168.917 145.099 165.248C142.966 161.493 141.899 156.672 141.899 150.784V126.208H131.915C130.976 126.208 130.166 125.909 129.483 125.312C128.886 124.715 128.587 123.947 128.587 123.008V112.64C128.587 111.701 128.886 110.933 129.483 110.336C130.166 109.739 130.976 109.44 131.915 109.44H141.899V88.32C141.899 87.3813 142.198 86.6133 142.795 86.016C143.478 85.4187 144.246 85.12 145.099 85.12H159.947C160.886 85.12 161.654 85.4187 162.251 86.016C162.848 86.6133 163.147 87.3813 163.147 88.32V109.44H179.147C180.086 109.44 180.854 109.739 181.451 110.336C182.048 110.933 182.347 111.701 182.347 112.64V123.008C182.347 123.947 182.048 124.715 181.451 125.312C180.854 125.909 180.086 126.208 179.147 126.208H163.147V148.992C163.147 151.893 163.702 154.197 164.811 155.904C165.92 157.611 167.798 158.464 170.443 158.464H180.299C181.238 158.464 182.006 158.763 182.603 159.36C183.2 159.957 183.499 160.725 183.499 161.664V172.8C183.499 173.739 183.2 174.507 182.603 175.104C182.006 175.701 181.238 176 180.299 176H168.395Z" fill="white"/>
</svg>
